<?xml version="1.0" encoding="UTF-8" standalone="no"?>
<svg
   width="28"
   height="28"
   viewBox="0 0 11.19916 11.19916"
   version="1.1"
   id="svg19"
   sodipodi:docname="github-icon.svg"
   inkscape:version="1.1 (c68e22c387, 2021-05-23)"
   xmlns:inkscape="http://www.inkscape.org/namespaces/inkscape"
   xmlns:sodipodi="http://sodipodi.sourceforge.net/DTD/sodipodi-0.dtd"
   xmlns="http://www.w3.org/2000/svg"
   xmlns:svg="http://www.w3.org/2000/svg">
  <defs
     id="defs23" />
  <sodipodi:namedview
     id="namedview21"
     pagecolor="#ffffff"
     bordercolor="#666666"
     borderopacity="1.0"
     inkscape:pageshadow="2"
     inkscape:pageopacity="0.0"
     inkscape:pagecheckerboard="0"
     showgrid="false"
     width="28px"
     inkscape:zoom="2.5888"
     inkscape:cx="82.470643"
     inkscape:cy="64.701792"
     inkscape:window-width="1920"
     inkscape:window-height="1017"
     inkscape:window-x="-8"
     inkscape:window-y="-8"
     inkscape:window-maximized="1"
     inkscape:current-layer="svg19" />
  <path
     d="m 0.199985,5.5995746 c 0,-1.4905118 0.52730365,-2.7630713 1.5819218,-3.8176786 1.0545965,-1.05460735 2.327156,-1.581911 3.8176786,-1.581911 1.4905008,0 2.7630603,0.52730365 3.8176786,1.581911 1.054596,1.0546073 1.581911,2.3271668 1.581911,3.8176786 0,1.4905116 -0.527303,2.7630711 -1.581911,3.8176785 C 8.3626567,10.47186 7.0900972,10.999175 5.5995854,10.999175 4.1090628,10.999175 2.8365033,10.471872 1.7819068,9.4172531 0.72728865,8.3626567 0.199985,7.0900755 0.199985,5.5995746 Z m 0.59058011,0 c 0,1.3217854 0.47105799,2.4537197 1.41317389,3.3958464 0.942116,0.9421053 2.074061,1.413173 3.3958464,1.413173 1.3217746,0 2.4537196,-0.4710571 3.3958356,-1.413173 C 9.9375369,8.053305 10.408594,6.92136 10.408594,5.5995746 10.408594,4.2778 9.9375475,3.145855 8.995421,2.203739 8.053305,1.2616231 6.921349,0.79056511 5.5995854,0.79056511 4.2778,0.79056511 3.1458657,1.2616231 2.203739,2.203739 1.2616231,3.145855 0.79056511,4.2778 0.79056511,5.5995746 Z m 1.51864529,1.160068 c -0.028122,-0.028123 -0.028122,-0.056246 0,-0.084368 0.056235,-0.056246 0.126553,-0.077338 0.2109107,-0.063277 0.084368,0.01406 0.1335837,0.028123 0.1476451,0.042185 0.09843,0.042185 0.2074116,0.1370934 0.3269229,0.2847494 0.1195114,0.1476449 0.2144314,0.249585 0.2847494,0.3058308 0.3374743,0.2812285 0.6819687,0.3023207 1.0335044,0.063276 0.028123,-0.09843 0.073828,-0.1827986 0.1370934,-0.2531166 C 4.5133021,6.9846155 4.5730792,6.9354112 4.6293251,6.9072776 4.6855815,6.8791542 4.7840114,6.8369705 4.924626,6.7807247 4.4605879,6.7385397 4.0844501,6.6576812 3.7961906,6.538159 3.5079314,6.4186367 3.2794276,6.2674818 3.1106904,6.0846832 2.8857077,5.8315774 2.7486032,5.5011338 2.6993882,5.0933522 2.6501624,4.6855709 2.6818059,4.3129429 2.7943083,3.9754686 2.8786769,3.7645471 2.998199,3.5747285 3.152864,3.4059806 3.0403724,3.0544448 3.0614646,2.6536939 3.2161402,2.2037281 3.6661062,2.231851 4.0738878,2.3865268 4.439485,2.6677554 5.1425566,2.4849568 5.873751,2.477926 6.6330574,2.6466632 6.7314873,2.5763561 6.8826531,2.4884775 7.0865332,2.383006 7.2904239,2.2775452 7.5470505,2.2177787 7.8564019,2.2037173 c 0.056246,0.1546758 0.094919,0.3374743 0.1160122,0.5483958 0.021092,0.2109215 0.010552,0.4077816 -0.031632,0.5905802 0.3234022,0.3374743 0.4921393,0.78744 0.5062008,1.3498973 0,0.449966 -0.077327,0.8225939 -0.2320029,1.1178839 -0.1546761,0.2952899 -0.4288739,0.541365 -0.8225941,0.7382141 -0.267167,0.1265639 -0.6187028,0.2038908 -1.0546073,0.2320137 0.1968708,0.09843 0.3409952,0.200381 0.4323944,0.3058416 0.09141,0.1054609 0.1511658,0.2706772 0.1792994,0.4956602 v 0.6644187 l 0.021082,0.6433052 c 0.042185,0.070318 0.09141,0.1300736 0.1476557,0.1792994 0.056246,0.049215 0.1054609,0.084368 0.147645,0.1054607 0.042174,0.021092 0.056246,0.052736 0.042174,0.09492 -0.01406,0.042185 -0.070307,0.063276 -0.1687265,0.063276 -0.2390551,0 -0.4288735,-0.084368 -0.5694879,-0.2531165 C 6.5276307,9.0094614 6.506538,8.9251034 6.506538,8.8266625 V 7.8142392 C 6.506538,7.7017478 6.478415,7.620889 6.42217,7.5716742 6.365924,7.5224482 6.3096787,7.4908162 6.2534328,7.4767542 v 1.3288051 c 0,0.2390444 0.028123,0.3937202 0.084368,0.4640274 0.056246,0.070307 0.091399,0.140625 0.1054712,0.2109213 0.01406,0.01406 0.00351,0.024603 -0.031643,0.031633 C 6.376487,9.519161 6.316719,9.508631 6.2323402,9.480508 6.0495406,9.4383238 5.9229877,9.3434035 5.8526805,9.1957585 5.7823735,9.0481135 5.7472199,8.889917 5.7472199,8.7211798 V 7.4134993 H 5.4730216 v 1.3077129 c 0,0.1687372 -0.035165,0.3304546 -0.1054714,0.4851196 -0.098419,0.1968708 -0.2812287,0.3023207 -0.548385,0.3163821 -0.042185,-0.01406 -0.063276,-0.028122 -0.063276,-0.042174 0.01406,-0.014073 0.056246,-0.084368 0.1265531,-0.2109213 0.01406,-0.028123 0.031643,-0.084369 0.052736,-0.1687373 0.021102,-0.084368 0.031644,-0.1827984 0.031644,-0.2952901 V 7.4767755 C 4.9105758,7.4908358 4.85784,7.5224701 4.808625,7.571696 4.7594098,7.6209218 4.7347974,7.7017696 4.7347974,7.8142613 v 1.0124229 c 0,0.098419 -0.021092,0.1827986 -0.063276,0.2531059 -0.1265528,0.1687371 -0.3163822,0.2531165 -0.5694773,0.2531165 -0.09843,0 -0.1546757,-0.021092 -0.1687372,-0.063276 -0.014073,-0.028123 -0.010552,-0.052736 0.010552,-0.073828 0.021102,-0.021092 0.052736,-0.045705 0.09492,-0.073829 0.042185,-0.028123 0.070307,-0.049226 0.084368,-0.063277 0.056245,-0.042184 0.098419,-0.09843 0.1265522,-0.1687371 0.042184,-0.056246 0.052725,-0.2038908 0.031633,-0.4429352 C 4.2602404,8.2079808 4.2567196,8.053305 4.27078,7.9829981 3.9051718,8.1095508 3.5325548,8.0462636 3.1528852,7.7931687 3.0403941,7.6806771 2.9279027,7.51896 2.8154111,7.3080494 2.7310426,7.1533627 2.5623055,6.9705641 2.3092104,6.7596426 Z"
     id="path17"
     style="stroke-width:0.0107999" />
</svg>
