<?xml version="1.0" encoding="UTF-8" standalone="no"?>
<svg
   xmlns:dc="http://purl.org/dc/elements/1.1/"
   xmlns:cc="http://creativecommons.org/ns#"
   xmlns:rdf="http://www.w3.org/1999/02/22-rdf-syntax-ns#"
   xmlns:svg="http://www.w3.org/2000/svg"
   xmlns="http://www.w3.org/2000/svg"
   xmlns:sodipodi="http://sodipodi.sourceforge.net/DTD/sodipodi-0.dtd"
   xmlns:inkscape="http://www.inkscape.org/namespaces/inkscape"
   sodipodi:docname="logo.svg"
   inkscape:version="1.0 (4035a4fb49, 2020-05-01)"
   id="svg8"
   version="1.1"
   viewBox="0 0 35 10"
   height="10mm"
   width="35mm">
  <defs
     id="defs2" />
  <sodipodi:namedview
     inkscape:window-maximized="1"
     inkscape:window-y="-9"
     inkscape:window-x="-9"
     inkscape:window-height="1001"
     inkscape:window-width="1920"
     showgrid="false"
     inkscape:document-rotation="0"
     inkscape:current-layer="text838"
     inkscape:document-units="mm"
     inkscape:cy="29.049411"
     inkscape:cx="80.608174"
     inkscape:zoom="7.919596"
     inkscape:pageshadow="2"
     inkscape:pageopacity="0.0"
     borderopacity="1.0"
     bordercolor="#666666"
     pagecolor="#ffffff"
     id="base" />
  <metadata
     id="metadata5">
    <rdf:RDF>
      <cc:Work
         rdf:about="">
        <dc:format>image/svg+xml</dc:format>
        <dc:type
           rdf:resource="http://purl.org/dc/dcmitype/StillImage" />
        <dc:title></dc:title>
      </cc:Work>
    </rdf:RDF>
  </metadata>
  <g
     id="layer1"
     inkscape:groupmode="layer"
     inkscape:label="Layer 1">
    <g
       aria-label="Exams &amp; Diagnostic"
       id="text838"
       style="font-style:normal;font-weight:normal;font-size:10.5833px;line-height:1.25;font-family:sans-serif;fill:#808080;fill-opacity:1;stroke:none;stroke-width:0.264583">
      <g
         transform="matrix(0.49492414,0,0,0.49492414,0.00537193,-0.18569208)"
         id="g902">
        <path
           style="fill:#9155a7;fill-opacity:1;stroke-width:0.0499077"
           id="path5"
           d="M 25.505207,10.974381 H 21.220534 L 19.713073,5.8429743 A 0.54603983,0.54603983 0 0 0 19.182954,5.5171266 0.54559066,0.54559066 0 0 0 18.692212,5.8997195 L 15.531559,15.527559 12.192536,2.0168529 A 0.54569048,0.54569048 0 0 0 11.67135,1.5875968 c -0.251934,-0.0047 -0.475071,0.1622 -0.589459,0.405999 L 7.3982047,11.024289 H 1.6040239 c -0.3012927,0 -0.5456906,0.244349 -0.5456906,0.545742 v 0.134201 c 0,0.301342 0.2443979,0.545741 0.5456906,0.545741 h 6.3601338 c 0.2567252,0 0.4787146,-0.178969 0.5332634,-0.429755 L 11.57398,3.9961411 15.007479,18.080037 c 0.04033,0.296002 0.242251,0.483505 0.490692,0.505365 0.01612,0.0014 0.03219,0.0021 0.04811,0.0021 0.229775,0 0.437341,-0.144832 0.514648,-0.414882 l 3.17877,-10.3106764 1.038578,3.9833824 a 0.54574039,0.54574039 0 0 0 0.511155,0.354693 h 4.677048 c 0.301342,0 0.545739,-0.244348 0.545739,-0.54574 l 0.03872,-0.134206 c -5e-5,-0.301341 -0.244398,-0.545691 -0.545741,-0.545691 z" />
        <g
           style="font-style:normal;font-weight:normal;font-size:10.5833px;line-height:1.25;font-family:sans-serif;fill:#9155a7;fill-opacity:1;stroke:none;stroke-width:0.264583"
           id="text834"
           aria-label="iPolyclinic">
          <path
             id="path840"
             style="font-style:normal;font-variant:normal;font-weight:normal;font-stretch:normal;font-size:8.81944px;font-family:Roboto;-inkscape-font-specification:'Roboto, Normal';font-variant-ligatures:normal;font-variant-caps:normal;font-variant-numeric:normal;font-variant-east-asian:normal;fill:#9155a7;fill-opacity:1;stroke-width:0.264583"
             d="M 30.050197,10.017235 H 29.253519 V 5.3577456 h 0.796678 z M 29.188924,4.1218182 q 0,-0.1937865 0.116272,-0.3272839 0.120578,-0.1334974 0.353122,-0.1334974 0.232544,0 0.353122,0.1334974 0.120578,0.1334974 0.120578,0.3272839 0,0.1937865 -0.120578,0.3229775 -0.120578,0.129191 -0.353122,0.129191 -0.232544,0 -0.353122,-0.129191 -0.116272,-0.129191 -0.116272,-0.3229775 z" />
          <path
             id="path842"
             style="font-style:normal;font-variant:normal;font-weight:normal;font-stretch:normal;font-size:8.81944px;font-family:Roboto;-inkscape-font-specification:'Roboto, Normal';font-variant-ligatures:normal;font-variant-caps:normal;font-variant-numeric:normal;font-variant-east-asian:normal;fill:#9155a7;fill-opacity:1;stroke-width:0.264583"
             d="M 32.272283,7.5626055 V 10.017235 H 31.44546 V 3.7471643 h 2.312519 q 1.029222,0 1.610582,0.5253767 0.585666,0.5253768 0.585666,1.3909566 0,0.9129499 -0.572747,1.4081821 -0.568441,0.4909258 -1.632113,0.4909258 z m 0,-0.6760996 h 1.485696 q 0.663181,0 1.016303,-0.3100584 0.353122,-0.3143648 0.353122,-0.9043371 0,-0.5598278 -0.353122,-0.8957244 Q 34.42116,4.4404894 33.80535,4.4275703 h -1.533067 z" />
          <path
             id="path844"
             style="font-style:normal;font-variant:normal;font-weight:normal;font-stretch:normal;font-size:8.81944px;font-family:Roboto;-inkscape-font-specification:'Roboto, Normal';font-variant-ligatures:normal;font-variant-caps:normal;font-variant-numeric:normal;font-variant-east-asian:normal;fill:#9155a7;fill-opacity:1;stroke-width:0.264583"
             d="m 36.621713,7.6444265 q 0,-0.6847124 0.266995,-1.231621 0.271301,-0.5469086 0.749308,-0.8440479 0.482313,-0.2971394 1.098124,-0.2971394 0.951707,0 1.537373,0.6588742 0.589972,0.6588742 0.589972,1.7526914 v 0.055983 q 0,0.680406 -0.262688,1.2230083 -0.258382,0.5382958 -0.745002,0.8397415 -0.482313,0.3014454 -1.111043,0.3014454 -0.9474,0 -1.537373,-0.6588738 Q 36.621713,8.785614 36.621713,7.7004095 Z m 0.800985,0.09474 q 0,0.7751461 0.357428,1.2445401 0.361735,0.469394 0.964626,0.469394 0.607198,0 0.964627,-0.4737004 0.357428,-0.4780067 0.357428,-1.3349738 0,-0.7665333 -0.366041,-1.2402337 Q 39.339031,5.926186 38.73614,5.926186 q -0.589973,0 -0.951707,0.469394 -0.361735,0.4693941 -0.361735,1.3435865 z" />
          <path
             id="path846"
             style="font-style:normal;font-variant:normal;font-weight:normal;font-stretch:normal;font-size:8.81944px;font-family:Roboto;-inkscape-font-specification:'Roboto, Normal';font-variant-ligatures:normal;font-variant-caps:normal;font-variant-numeric:normal;font-variant-east-asian:normal;fill:#9155a7;fill-opacity:1;stroke-width:0.264583"
             d="M 42.728141,10.017235 H 41.931464 V 3.4026549 h 0.796677 z" />
          <path
             id="path848"
             style="font-style:normal;font-variant:normal;font-weight:normal;font-stretch:normal;font-size:8.81944px;font-family:Roboto;-inkscape-font-specification:'Roboto, Normal';font-variant-ligatures:normal;font-variant-caps:normal;font-variant-numeric:normal;font-variant-east-asian:normal;fill:#9155a7;fill-opacity:1;stroke-width:0.264583"
             d="m 45.522974,8.8502093 1.085205,-3.4924637 h 0.852661 l -1.87327,5.3786524 q -0.434943,1.162719 -1.382344,1.162719 l -0.150723,-0.01292 -0.297139,-0.05598 V 11.18426 l 0.215318,0.01723 q 0.404799,0 0.62873,-0.163642 0.228237,-0.163642 0.374654,-0.598585 L 45.152627,9.9655584 43.490369,5.3577456 h 0.869886 z" />
          <path
             id="path850"
             style="font-style:normal;font-variant:normal;font-weight:normal;font-stretch:normal;font-size:8.81944px;font-family:Roboto;-inkscape-font-specification:'Roboto, Normal';font-variant-ligatures:normal;font-variant-caps:normal;font-variant-numeric:normal;font-variant-east-asian:normal;fill:#9155a7;fill-opacity:1;stroke-width:0.264583"
             d="m 49.984371,9.4531007 q 0.42633,0 0.745001,-0.258382 0.318671,-0.258382 0.353122,-0.6459551 h 0.753615 q -0.02153,0.4004922 -0.275608,0.762227 -0.254076,0.3617348 -0.680406,0.5770532 -0.422024,0.2153182 -0.895724,0.2153182 -0.951707,0 -1.515841,-0.6330358 Q 47.908702,8.8329838 47.908702,7.7305539 V 7.5970565 q 0,-0.680406 0.249769,-1.2100892 0.249769,-0.5296831 0.714857,-0.8225161 0.469394,-0.292833 1.106736,-0.292833 0.783759,0 1.300523,0.469394 0.521071,0.4693941 0.555522,1.2187019 H 51.082494 Q 51.048043,6.5075456 50.737985,6.219019 50.432233,5.926186 49.980064,5.926186 q -0.607197,0 -0.943094,0.4392495 -0.33159,0.4349431 -0.33159,1.2617655 v 0.1507229 q 0,0.8052906 0.33159,1.2402337 0.33159,0.4349431 0.947401,0.4349431 z" />
          <path
             id="path852"
             style="font-style:normal;font-variant:normal;font-weight:normal;font-stretch:normal;font-size:8.81944px;font-family:Roboto;-inkscape-font-specification:'Roboto, Normal';font-variant-ligatures:normal;font-variant-caps:normal;font-variant-numeric:normal;font-variant-east-asian:normal;fill:#9155a7;fill-opacity:1;stroke-width:0.264583"
             d="M 53.597412,10.017235 H 52.800734 V 3.4026549 h 0.796678 z" />
          <path
             id="path854"
             style="font-style:normal;font-variant:normal;font-weight:normal;font-stretch:normal;font-size:8.81944px;font-family:Roboto;-inkscape-font-specification:'Roboto, Normal';font-variant-ligatures:normal;font-variant-caps:normal;font-variant-numeric:normal;font-variant-east-asian:normal;fill:#9155a7;fill-opacity:1;stroke-width:0.264583"
             d="M 55.733371,10.017235 H 54.936693 V 5.3577456 h 0.796678 z M 54.872098,4.1218182 q 0,-0.1937865 0.116272,-0.3272839 0.120578,-0.1334974 0.353122,-0.1334974 0.232544,0 0.353122,0.1334974 0.120578,0.1334974 0.120578,0.3272839 0,0.1937865 -0.120578,0.3229775 -0.120578,0.129191 -0.353122,0.129191 -0.232544,0 -0.353122,-0.129191 -0.116272,-0.129191 -0.116272,-0.3229775 z" />
          <path
             id="path856"
             style="font-style:normal;font-variant:normal;font-weight:normal;font-stretch:normal;font-size:8.81944px;font-family:Roboto;-inkscape-font-specification:'Roboto, Normal';font-variant-ligatures:normal;font-variant-caps:normal;font-variant-numeric:normal;font-variant-east-asian:normal;fill:#9155a7;fill-opacity:1;stroke-width:0.264583"
             d="m 57.757364,5.3577456 0.02584,0.5856659 q 0.533989,-0.6717933 1.395263,-0.6717933 1.477084,0 1.490003,1.6665641 V 10.017235 H 59.87179 V 6.9338759 Q 59.867483,6.430031 59.639246,6.1888744 59.415315,5.9477179 58.937308,5.9477179 q -0.387573,0 -0.680406,0.2067056 -0.292833,0.2067056 -0.456475,0.5426022 V 10.017235 H 57.003749 V 5.3577456 Z" />
          <path
             id="path858"
             style="font-style:normal;font-variant:normal;font-weight:normal;font-stretch:normal;font-size:8.81944px;font-family:Roboto;-inkscape-font-specification:'Roboto, Normal';font-variant-ligatures:normal;font-variant-caps:normal;font-variant-numeric:normal;font-variant-east-asian:normal;fill:#9155a7;fill-opacity:1;stroke-width:0.264583"
             d="M 62.744136,10.017235 H 61.947459 V 5.3577456 h 0.796677 z M 61.882863,4.1218182 q 0,-0.1937865 0.116272,-0.3272839 0.120578,-0.1334974 0.353122,-0.1334974 0.232544,0 0.353122,0.1334974 0.120578,0.1334974 0.120578,0.3272839 0,0.1937865 -0.120578,0.3229775 -0.120578,0.129191 -0.353122,0.129191 -0.232544,0 -0.353122,-0.129191 -0.116272,-0.129191 -0.116272,-0.3229775 z" />
          <path
             id="path860"
             style="font-style:normal;font-variant:normal;font-weight:normal;font-stretch:normal;font-size:8.81944px;font-family:Roboto;-inkscape-font-specification:'Roboto, Normal';font-variant-ligatures:normal;font-variant-caps:normal;font-variant-numeric:normal;font-variant-east-asian:normal;fill:#9155a7;fill-opacity:1;stroke-width:0.264583"
             d="m 65.88348,9.4531007 q 0.42633,0 0.745001,-0.258382 0.318671,-0.258382 0.353122,-0.6459551 h 0.753615 q -0.02153,0.4004922 -0.275608,0.762227 -0.254076,0.3617348 -0.680406,0.5770532 -0.422024,0.2153182 -0.895724,0.2153182 -0.951707,0 -1.515842,-0.6330358 Q 63.807811,8.8329838 63.807811,7.7305539 V 7.5970565 q 0,-0.680406 0.249769,-1.2100892 0.249769,-0.5296831 0.714857,-0.8225161 0.469394,-0.292833 1.106736,-0.292833 0.783759,0 1.300523,0.469394 0.521071,0.4693941 0.555522,1.2187019 H 66.981603 Q 66.947152,6.5075456 66.637094,6.219019 66.331342,5.926186 65.879173,5.926186 q -0.607197,0 -0.943094,0.4392495 -0.33159,0.4349431 -0.33159,1.2617655 v 0.1507229 q 0,0.8052906 0.33159,1.2402337 0.33159,0.4349431 0.947401,0.4349431 z" />
        </g>
        <path
           id="path863"
           style="font-style:normal;font-variant:normal;font-weight:normal;font-stretch:normal;font-size:4.23333px;font-family:Roboto;-inkscape-font-specification:'Roboto, Normal';font-variant-ligatures:normal;font-variant-caps:normal;font-variant-numeric:normal;font-variant-east-asian:normal;fill:#808080;fill-opacity:1;stroke-width:0.264583"
           d="m 31.033147,14.896195 h -1.304312 v 1.0666 h 1.515152 v 0.324528 H 29.33196 V 13.27769 h 1.891356 v 0.326595 h -1.494481 v 0.967382 h 1.304312 z" />
        <path
           id="path865"
           style="font-style:normal;font-variant:normal;font-weight:normal;font-stretch:normal;font-size:4.23333px;font-family:Roboto;-inkscape-font-specification:'Roboto, Normal';font-variant-ligatures:normal;font-variant-caps:normal;font-variant-numeric:normal;font-variant-east-asian:normal;fill:#808080;fill-opacity:1;stroke-width:0.264583"
           d="m 32.428409,14.867256 0.496094,-0.816487 h 0.446484 l -0.731738,1.105875 0.754475,1.130679 h -0.44235 l -0.516763,-0.837158 -0.516764,0.837158 H 31.47343 l 0.754475,-1.130679 -0.731738,-1.105875 h 0.44235 z" />
        <path
           id="path867"
           style="font-style:normal;font-variant:normal;font-weight:normal;font-stretch:normal;font-size:4.23333px;font-family:Roboto;-inkscape-font-specification:'Roboto, Normal';font-variant-ligatures:normal;font-variant-caps:normal;font-variant-numeric:normal;font-variant-east-asian:normal;fill:#808080;fill-opacity:1;stroke-width:0.264583"
           d="m 35.15899,16.287323 q -0.03307,-0.06615 -0.05374,-0.235644 -0.26665,0.276985 -0.636653,0.276985 -0.330729,0 -0.543636,-0.186035 -0.210839,-0.188102 -0.210839,-0.475423 0,-0.349332 0.264583,-0.541568 0.26665,-0.194303 0.748274,-0.194303 h 0.37207 v -0.1757 q 0,-0.200505 -0.119889,-0.318327 -0.11989,-0.119889 -0.353467,-0.119889 -0.204638,0 -0.343131,0.103353 -0.138493,0.103353 -0.138493,0.250114 h -0.384472 q 0,-0.167432 0.117822,-0.322461 0.119889,-0.157096 0.322461,-0.248047 0.204638,-0.09095 0.448551,-0.09095 0.386539,0 0.605647,0.194303 0.219108,0.192236 0.227376,0.531233 v 1.029394 q 0,0.307991 0.07855,0.489892 v 0.03307 z m -0.634587,-0.291455 q 0.179834,0 0.341065,-0.09302 0.16123,-0.09302 0.233577,-0.241846 v -0.458886 h -0.299723 q -0.702799,0 -0.702799,0.411344 0,0.179834 0.119889,0.281119 0.119889,0.101286 0.307991,0.101286 z" />
        <path
           id="path869"
           style="font-style:normal;font-variant:normal;font-weight:normal;font-stretch:normal;font-size:4.23333px;font-family:Roboto;-inkscape-font-specification:'Roboto, Normal';font-variant-ligatures:normal;font-variant-caps:normal;font-variant-numeric:normal;font-variant-east-asian:normal;fill:#808080;fill-opacity:1;stroke-width:0.264583"
           d="m 36.444698,14.050769 0.01034,0.248047 q 0.245979,-0.289388 0.663524,-0.289388 0.469222,0 0.638721,0.359667 0.111621,-0.16123 0.289387,-0.260449 0.179834,-0.09922 0.423747,-0.09922 0.735872,0 0.748274,0.77928 v 1.498615 h -0.382405 v -1.475878 q 0,-0.239778 -0.109554,-0.3576 -0.109554,-0.119889 -0.367936,-0.119889 -0.212907,0 -0.353467,0.128157 -0.14056,0.12609 -0.163297,0.341064 v 1.484146 H 37.45756 v -1.465542 q 0,-0.487825 -0.47749,-0.487825 -0.376204,0 -0.514697,0.320393 v 1.632974 h -0.382405 v -2.236554 z" />
        <path
           id="path871"
           style="font-style:normal;font-variant:normal;font-weight:normal;font-stretch:normal;font-size:4.23333px;font-family:Roboto;-inkscape-font-specification:'Roboto, Normal';font-variant-ligatures:normal;font-variant-caps:normal;font-variant-numeric:normal;font-variant-east-asian:normal;fill:#808080;fill-opacity:1;stroke-width:0.264583"
           d="m 41.099708,15.694078 q 0,-0.155029 -0.117823,-0.239778 -0.115755,-0.08682 -0.40721,-0.148828 -0.289387,-0.06201 -0.460953,-0.148828 -0.169499,-0.08682 -0.252181,-0.206706 -0.08062,-0.119889 -0.08062,-0.285254 0,-0.274918 0.23151,-0.465087 0.233578,-0.190169 0.595312,-0.190169 0.380339,0 0.615983,0.19637 0.237711,0.19637 0.237711,0.502295 H 41.07697 q 0,-0.157097 -0.134359,-0.270785 -0.132291,-0.113688 -0.334863,-0.113688 -0.208772,0 -0.326594,0.09095 -0.117823,0.09095 -0.117823,0.237711 0,0.138493 0.109554,0.208773 0.109554,0.07028 0.394808,0.134358 0.287321,0.06408 0.465087,0.152962 0.177767,0.08888 0.262516,0.214974 0.08682,0.124023 0.08682,0.303857 0,0.299723 -0.239779,0.481624 -0.239778,0.179834 -0.622183,0.179834 -0.268718,0 -0.475423,-0.09508 -0.206706,-0.09509 -0.324528,-0.264584 -0.115755,-0.171565 -0.115755,-0.370003 h 0.382405 q 0.01034,0.192237 0.152962,0.305925 0.144694,0.111621 0.380339,0.111621 0.21704,0 0.347265,-0.08682 0.132292,-0.08888 0.132292,-0.235644 z" />
        <path
           id="path873"
           style="font-style:normal;font-variant:normal;font-weight:normal;font-stretch:normal;font-size:4.23333px;font-family:Roboto;-inkscape-font-specification:'Roboto, Normal';font-variant-ligatures:normal;font-variant-caps:normal;font-variant-numeric:normal;font-variant-east-asian:normal;fill:#808080;fill-opacity:1;stroke-width:0.264583"
           d="m 42.949722,15.479104 q 0,-0.217041 0.119889,-0.398941 0.121957,-0.181901 0.463021,-0.423747 -0.200504,-0.243912 -0.268717,-0.39274 -0.06821,-0.148828 -0.06821,-0.295589 0,-0.343132 0.202571,-0.537435 0.202572,-0.194303 0.549837,-0.194303 0.310058,0 0.51263,0.181901 0.202571,0.179834 0.202571,0.454752 0,0.181901 -0.09302,0.33693 -0.09095,0.152962 -0.320394,0.322461 l -0.221175,0.163297 0.669726,0.799951 q 0.14056,-0.268718 0.14056,-0.597379 h 0.345198 q 0,0.527099 -0.254248,0.874364 l 0.429948,0.514697 h -0.458886 l -0.200505,-0.237711 q -0.152962,0.136425 -0.359667,0.208772 -0.204639,0.07028 -0.417546,0.07028 -0.440282,0 -0.706933,-0.233577 -0.26665,-0.233577 -0.26665,-0.615983 z m 0.973583,0.537435 q 0.303858,0 0.556038,-0.231511 l -0.733804,-0.878498 -0.06821,0.04961 q -0.345198,0.254248 -0.345198,0.522965 0,0.243913 0.157096,0.390674 0.159163,0.146761 0.434081,0.146761 z m -0.345198,-2.060855 q 0,0.198438 0.243913,0.496094 l 0.243912,-0.171566 q 0.14056,-0.09922 0.192236,-0.188102 0.05168,-0.09095 0.05168,-0.219108 0,-0.138493 -0.103353,-0.229443 -0.103353,-0.09302 -0.260449,-0.09302 -0.169499,0 -0.268717,0.115756 -0.09922,0.113688 -0.09922,0.289387 z" />
        <path
           id="path875"
           style="font-style:normal;font-variant:normal;font-weight:normal;font-stretch:normal;font-size:4.23333px;font-family:Roboto;-inkscape-font-specification:'Roboto, Normal';font-variant-ligatures:normal;font-variant-caps:normal;font-variant-numeric:normal;font-variant-east-asian:normal;fill:#808080;fill-opacity:1;stroke-width:0.264583"
           d="M 46.769641,16.287323 V 13.27769 h 0.84956 q 0.392741,0 0.694531,0.173633 0.30179,0.173632 0.465087,0.494026 0.165365,0.320394 0.167432,0.735872 v 0.192236 q 0,0.425813 -0.165364,0.746207 -0.163298,0.320394 -0.469222,0.491959 -0.303857,0.171566 -0.709,0.1757 z m 0.396875,-2.683038 v 2.35851 h 0.417545 q 0.458887,0 0.713135,-0.285253 0.256314,-0.285254 0.256314,-0.812353 v -0.1757 q 0,-0.51263 -0.241845,-0.795816 -0.239779,-0.285254 -0.682128,-0.289388 z" />
        <path
           id="path877"
           style="font-style:normal;font-variant:normal;font-weight:normal;font-stretch:normal;font-size:4.23333px;font-family:Roboto;-inkscape-font-specification:'Roboto, Normal';font-variant-ligatures:normal;font-variant-caps:normal;font-variant-numeric:normal;font-variant-east-asian:normal;fill:#808080;fill-opacity:1;stroke-width:0.264583"
           d="m 49.903297,16.287323 h -0.382405 v -2.236554 h 0.382405 z m -0.413411,-2.829799 q 0,-0.09302 0.05581,-0.157096 0.05788,-0.06408 0.169499,-0.06408 0.111621,0 0.169498,0.06408 0.05788,0.06408 0.05788,0.157096 0,0.09302 -0.05788,0.155029 -0.05788,0.06201 -0.169498,0.06201 -0.111621,0 -0.169499,-0.06201 -0.05581,-0.06201 -0.05581,-0.155029 z" />
        <path
           id="path879"
           style="font-style:normal;font-variant:normal;font-weight:normal;font-stretch:normal;font-size:4.23333px;font-family:Roboto;-inkscape-font-specification:'Roboto, Normal';font-variant-ligatures:normal;font-variant-caps:normal;font-variant-numeric:normal;font-variant-east-asian:normal;fill:#808080;fill-opacity:1;stroke-width:0.264583"
           d="m 51.893871,16.287323 q -0.03307,-0.06615 -0.05374,-0.235644 -0.26665,0.276985 -0.636653,0.276985 -0.330729,0 -0.543635,-0.186035 -0.21084,-0.188102 -0.21084,-0.475423 0,-0.349332 0.264583,-0.541568 0.26665,-0.194303 0.748274,-0.194303 h 0.37207 v -0.1757 q 0,-0.200505 -0.119889,-0.318327 -0.119889,-0.119889 -0.353466,-0.119889 -0.204639,0 -0.343132,0.103353 -0.138492,0.103353 -0.138492,0.250114 h -0.384473 q 0,-0.167432 0.117822,-0.322461 0.11989,-0.157096 0.322461,-0.248047 0.204639,-0.09095 0.448551,-0.09095 0.38654,0 0.605647,0.194303 0.219108,0.192236 0.227377,0.531233 v 1.029394 q 0,0.307991 0.07855,0.489892 v 0.03307 z m -0.634586,-0.291455 q 0.179834,0 0.341064,-0.09302 0.16123,-0.09302 0.233577,-0.241846 v -0.458886 h -0.299723 q -0.702799,0 -0.702799,0.411344 0,0.179834 0.11989,0.281119 0.119889,0.101286 0.307991,0.101286 z" />
        <path
           id="path881"
           style="font-style:normal;font-variant:normal;font-weight:normal;font-stretch:normal;font-size:4.23333px;font-family:Roboto;-inkscape-font-specification:'Roboto, Normal';font-variant-ligatures:normal;font-variant-caps:normal;font-variant-numeric:normal;font-variant-east-asian:normal;fill:#808080;fill-opacity:1;stroke-width:0.264583"
           d="m 52.728963,15.150442 q 0,-0.522965 0.241845,-0.830956 0.241846,-0.310058 0.640787,-0.310058 0.409277,0 0.63872,0.289388 l 0.0186,-0.248047 h 0.349332 v 2.182811 q 0,0.434081 -0.258382,0.684195 -0.256315,0.250114 -0.690396,0.250114 -0.241846,0 -0.473356,-0.103353 -0.23151,-0.103353 -0.353466,-0.283187 l 0.198437,-0.229443 q 0.24598,0.303857 0.601513,0.303857 0.279053,0 0.434082,-0.157096 0.157096,-0.157096 0.157096,-0.44235 v -0.192236 q -0.229443,0.264583 -0.626318,0.264583 -0.39274,0 -0.636653,-0.316259 -0.241845,-0.31626 -0.241845,-0.861963 z m 0.384472,0.04341 q 0,0.378271 0.155029,0.595312 0.155029,0.214973 0.434082,0.214973 0.361734,0 0.531233,-0.328661 V 14.65435 q -0.1757,-0.320393 -0.527099,-0.320393 -0.279053,0 -0.436149,0.21704 -0.157096,0.217041 -0.157096,0.642855 z" />
        <path
           id="path883"
           style="font-style:normal;font-variant:normal;font-weight:normal;font-stretch:normal;font-size:4.23333px;font-family:Roboto;-inkscape-font-specification:'Roboto, Normal';font-variant-ligatures:normal;font-variant-caps:normal;font-variant-numeric:normal;font-variant-east-asian:normal;fill:#808080;fill-opacity:1;stroke-width:0.264583"
           d="m 55.554626,14.050769 0.0124,0.281119 q 0.256315,-0.32246 0.669726,-0.32246 0.709,0 0.715201,0.79995 v 1.477945 H 56.56955 v -1.480012 q -0.0021,-0.241845 -0.111621,-0.3576 -0.107487,-0.115755 -0.33693,-0.115755 -0.186035,0 -0.326595,0.09922 -0.140559,0.09922 -0.219108,0.260449 v 1.5937 h -0.382405 v -2.236554 z" />
        <path
           id="path885"
           style="font-style:normal;font-variant:normal;font-weight:normal;font-stretch:normal;font-size:4.23333px;font-family:Roboto;-inkscape-font-specification:'Roboto, Normal';font-variant-ligatures:normal;font-variant-caps:normal;font-variant-numeric:normal;font-variant-east-asian:normal;fill:#808080;fill-opacity:1;stroke-width:0.264583"
           d="m 57.431514,15.148375 q 0,-0.328661 0.128158,-0.591177 0.130224,-0.262517 0.359667,-0.405143 0.23151,-0.142627 0.527099,-0.142627 0.45682,0 0.737939,0.316259 0.283187,0.31626 0.283187,0.841292 v 0.02687 q 0,0.326594 -0.126091,0.587043 -0.124023,0.258382 -0.3576,0.403076 -0.23151,0.144694 -0.533301,0.144694 -0.454752,0 -0.737938,-0.316259 -0.28112,-0.31626 -0.28112,-0.837158 z m 0.384472,0.04548 q 0,0.37207 0.171566,0.597379 0.173633,0.225309 0.46302,0.225309 0.291455,0 0.463021,-0.227376 0.171566,-0.229444 0.171566,-0.640788 0,-0.367936 -0.1757,-0.595312 -0.173633,-0.229443 -0.463021,-0.229443 -0.283186,0 -0.456819,0.225309 -0.173633,0.225309 -0.173633,0.644922 z" />
        <path
           id="path887"
           style="font-style:normal;font-variant:normal;font-weight:normal;font-stretch:normal;font-size:4.23333px;font-family:Roboto;-inkscape-font-specification:'Roboto, Normal';font-variant-ligatures:normal;font-variant-caps:normal;font-variant-numeric:normal;font-variant-east-asian:normal;fill:#808080;fill-opacity:1;stroke-width:0.264583"
           d="m 61.249365,15.694078 q 0,-0.155029 -0.117822,-0.239778 -0.115755,-0.08682 -0.40721,-0.148828 -0.289388,-0.06201 -0.460954,-0.148828 -0.169498,-0.08682 -0.25218,-0.206706 -0.08062,-0.119889 -0.08062,-0.285254 0,-0.274918 0.231511,-0.465087 0.233577,-0.190169 0.595312,-0.190169 0.380338,0 0.615982,0.19637 0.237712,0.19637 0.237712,0.502295 h -0.384473 q 0,-0.157097 -0.134358,-0.270785 -0.132292,-0.113688 -0.334863,-0.113688 -0.208773,0 -0.326595,0.09095 -0.117822,0.09095 -0.117822,0.237711 0,0.138493 0.109554,0.208773 0.109554,0.07028 0.394807,0.134358 0.287321,0.06408 0.465088,0.152962 0.177766,0.08888 0.262516,0.214974 0.08682,0.124023 0.08682,0.303857 0,0.299723 -0.239778,0.481624 -0.239779,0.179834 -0.622184,0.179834 -0.268717,0 -0.475423,-0.09508 -0.206705,-0.09509 -0.324528,-0.264584 -0.115755,-0.171565 -0.115755,-0.370003 h 0.382406 q 0.01033,0.192237 0.152962,0.305925 0.144694,0.111621 0.380338,0.111621 0.217041,0 0.347265,-0.08682 0.132292,-0.08888 0.132292,-0.235644 z" />
        <path
           id="path889"
           style="font-style:normal;font-variant:normal;font-weight:normal;font-stretch:normal;font-size:4.23333px;font-family:Roboto;-inkscape-font-specification:'Roboto, Normal';font-variant-ligatures:normal;font-variant-caps:normal;font-variant-numeric:normal;font-variant-east-asian:normal;fill:#808080;fill-opacity:1;stroke-width:0.264583"
           d="m 62.648761,13.5092 v 0.541569 h 0.417545 v 0.295589 h -0.417545 v 1.386994 q 0,0.134359 0.05581,0.202572 0.05581,0.06614 0.190169,0.06614 0.06615,0 0.181901,-0.0248 v 0.310058 q -0.150895,0.04134 -0.293522,0.04134 -0.256315,0 -0.386539,-0.155029 -0.130225,-0.155029 -0.130225,-0.440283 v -1.386994 h -0.40721 v -0.295589 h 0.40721 V 13.5092 Z" />
        <path
           id="path891"
           style="font-style:normal;font-variant:normal;font-weight:normal;font-stretch:normal;font-size:4.23333px;font-family:Roboto;-inkscape-font-specification:'Roboto, Normal';font-variant-ligatures:normal;font-variant-caps:normal;font-variant-numeric:normal;font-variant-east-asian:normal;fill:#808080;fill-opacity:1;stroke-width:0.264583"
           d="m 63.926202,16.287323 h -0.382405 v -2.236554 h 0.382405 z m -0.413411,-2.829799 q 0,-0.09302 0.05581,-0.157096 0.05788,-0.06408 0.169498,-0.06408 0.111621,0 0.169499,0.06408 0.05788,0.06408 0.05788,0.157096 0,0.09302 -0.05788,0.155029 -0.05788,0.06201 -0.169499,0.06201 -0.111621,0 -0.169498,-0.06201 -0.05581,-0.06201 -0.05581,-0.155029 z" />
        <path
           id="path893"
           style="font-style:normal;font-variant:normal;font-weight:normal;font-stretch:normal;font-size:4.23333px;font-family:Roboto;-inkscape-font-specification:'Roboto, Normal';font-variant-ligatures:normal;font-variant-caps:normal;font-variant-numeric:normal;font-variant-east-asian:normal;fill:#808080;fill-opacity:1;stroke-width:0.264583"
           d="m 65.433087,16.016539 q 0.204639,0 0.357601,-0.124024 0.152962,-0.124023 0.169498,-0.310058 h 0.361735 q -0.01033,0.192236 -0.132291,0.365869 -0.121957,0.173633 -0.326595,0.276985 -0.202572,0.103353 -0.429948,0.103353 -0.456819,0 -0.727603,-0.303857 -0.268718,-0.305924 -0.268718,-0.835091 v -0.06408 q 0,-0.326595 0.11989,-0.580843 0.119889,-0.254248 0.343131,-0.394807 0.225309,-0.14056 0.531233,-0.14056 0.376204,0 0.624251,0.225309 0.250114,0.225309 0.26665,0.584977 h -0.361735 q -0.01654,-0.217041 -0.165364,-0.355534 -0.146761,-0.14056 -0.363802,-0.14056 -0.291455,0 -0.452685,0.21084 -0.159163,0.208772 -0.159163,0.605647 v 0.07235 q 0,0.386539 0.159163,0.595312 0.159163,0.208773 0.454752,0.208772 z" />
      </g>
    </g>
  </g>
</svg>
