<?xml version="1.0" encoding="UTF-8" standalone="no"?>
<svg
   xmlns:dc="http://purl.org/dc/elements/1.1/"
   xmlns:cc="http://creativecommons.org/ns#"
   xmlns:rdf="http://www.w3.org/1999/02/22-rdf-syntax-ns#"
   xmlns:svg="http://www.w3.org/2000/svg"
   xmlns="http://www.w3.org/2000/svg"
   xmlns:sodipodi="http://sodipodi.sourceforge.net/DTD/sodipodi-0.dtd"
   xmlns:inkscape="http://www.inkscape.org/namespaces/inkscape"
   width="25mm"
   height="17mm"
   viewBox="0 0 25 17"
   version="1.1"
   id="svg8"
   inkscape:version="1.0 (4035a4fb49, 2020-05-01)"
   sodipodi:docname="favicon.svg">
  <defs
     id="defs2" />
  <sodipodi:namedview
     id="base"
     pagecolor="#ffffff"
     bordercolor="#666666"
     borderopacity="1.0"
     inkscape:pageopacity="0.0"
     inkscape:pageshadow="2"
     inkscape:zoom="1.979899"
     inkscape:cx="123.19792"
     inkscape:cy="-1.4870624"
     inkscape:document-units="mm"
     inkscape:current-layer="layer1"
     inkscape:document-rotation="0"
     showgrid="false"
     inkscape:window-width="1920"
     inkscape:window-height="1001"
     inkscape:window-x="-9"
     inkscape:window-y="-9"
     inkscape:window-maximized="1" />
  <metadata
     id="metadata5">
    <rdf:RDF>
      <cc:Work
         rdf:about="">
        <dc:format>image/svg+xml</dc:format>
        <dc:type
           rdf:resource="http://purl.org/dc/dcmitype/StillImage" />
        <dc:title></dc:title>
      </cc:Work>
    </rdf:RDF>
  </metadata>
  <g
     inkscape:label="Layer 1"
     inkscape:groupmode="layer"
     id="layer1">
    <path
       style="fill:#9155a7;fill-opacity:1;stroke-width:0.0499077"
       id="path5"
       d="M 24.446873,9.3868807 H 20.1622 L 18.654739,4.2554742 A 0.54603983,0.54603983 0 0 0 18.12462,3.9296265 0.54559066,0.54559066 0 0 0 17.633878,4.3122194 L 14.473225,13.940058 11.134202,0.42935287 A 0.54569048,0.54569048 0 0 0 10.613016,9.6736086e-5 C 10.361082,-0.00460188 10.137945,0.1622968 10.023557,0.40609575 L 6.3398713,9.436789 H 0.54569053 C 0.24439787,9.436789 0,9.6811371 0,9.9825301 v 0.1342009 c 0,0.301342 0.24439787,0.545741 0.54569053,0.545741 H 6.9058243 c 0.2567252,0 0.4787146,-0.178969 0.5332634,-0.429755 l 3.0765583,-7.824076 3.433499,14.083895 c 0.04033,0.296002 0.242251,0.483505 0.490692,0.505365 0.01612,0.0014 0.03219,0.0021 0.04811,0.0021 0.229775,0 0.437341,-0.144832 0.514648,-0.414882 l 3.17877,-10.3106755 1.038578,3.9833815 a 0.54574039,0.54574039 0 0 0 0.511155,0.354693 h 4.677048 c 0.301342,0 0.545739,-0.244348 0.545739,-0.54574 l 0.03872,-0.1342052 c -5e-5,-0.3013419 -0.244398,-0.5456911 -0.545741,-0.5456911 z" />
  </g>
</svg>
